<?xml version="1.0" encoding="UTF-8"?>
<svg width="38px" height="35px" viewBox="0 0 38 35" version="1.1" xmlns="http://www.w3.org/2000/svg" xmlns:xlink="http://www.w3.org/1999/xlink">
    <!-- Generator: Sketch 54.1 (76490) - https://sketchapp.com -->
    <title>family</title>
    <desc>Created with Sketch.</desc>
    <defs>
        <linearGradient x1="50%" y1="0%" x2="50%" y2="97.2520773%" id="linearGradient-1">
            <stop stop-color="#1862E1" offset="0%"></stop>
            <stop stop-color="#FFFFFF" offset="100%"></stop>
        </linearGradient>
    </defs>
    <g id="Page-1" stroke="none" stroke-width="1" fill="none" fill-rule="evenodd">
        <g id="Home-v2" transform="translate(-405.000000, -1290.000000)">
            <g id="WHY" transform="translate(404.000000, 1081.000000)">
                <g id="1" transform="translate(1.000000, 211.000000)">
                    <g id="family" transform="translate(1.000000, 0.000000)">
                        <polygon id="Path-4" fill="url(#linearGradient-1)" opacity="0.537202381" points="0 7.42051094 18.3300252 0 36 7.42051094 36 17 0 16.200147"></polygon>
                        <polyline id="Path" stroke="#2C2E30" stroke-width="2" points="0 8 18 0 36 8"></polyline>
                        <path d="M15,30.254 C15,29.348 14.5591667,28.48625 13.77,27.923 C12.565,27.062 10.475,26 7.5,26 C4.525,26 2.435,27.062 1.23,27.923 C0.440833333,28.48625 0,29.348 0,30.254 L0,32 L15,32 L15,30.254 Z" id="Path" stroke="#2C2E30" stroke-width="2" stroke-linecap="square"></path>
                        <path d="M11,17.0909091 C11,19.3499091 9.2088,22 7,22 C4.7912,22 3,19.3499091 3,17.0909091 C3,14.8319091 4.7912,13 7,13 C9.2088,13 11,14.8319091 11,17.0909091 Z" id="Path" stroke="#2C2E30" stroke-width="2" stroke-linecap="square"></path>
                        <path d="M36,30.254 C36,29.348 35.5591667,28.48625 34.77,27.923 C33.565,27.062 31.475,26 28.5,26 C25.525,26 23.435,27.062 22.23,27.923 C21.4408333,28.48625 21,29.348 21,30.254 L21,32 L36,32 L36,30.254 Z" id="Path" stroke="#2C2E30" stroke-width="2" stroke-linecap="square"></path>
                        <path d="M33,17.0909091 C33,19.3499091 31.2088,22 29,22 C26.7912,22 25,19.3499091 25,17.0909091 C25,14.8319091 26.7912,13 29,13 C31.2088,13 33,14.8319091 33,17.0909091 Z" id="Path" stroke="#2C2E30" stroke-width="2" stroke-linecap="square"></path>
                    </g>
                </g>
            </g>
        </g>
    </g>
</svg>