<?xml version="1.0" encoding="UTF-8"?>
<svg width="108px" height="108px" viewBox="0 0 108 108" version="1.1" xmlns="http://www.w3.org/2000/svg" xmlns:xlink="http://www.w3.org/1999/xlink">
    <!-- Generator: Sketch 54.1 (76490) - https://sketchapp.com -->
    <title>ICON</title>
    <desc>Created with Sketch.</desc>
    <g id="Page-1" stroke="none" stroke-width="1" fill="none" fill-rule="evenodd">
        <g id="Home-v2" transform="translate(-686.000000, -3402.000000)">
            <g id="FEATURE" transform="translate(0.000000, 2889.000000)">
                <g id="1" transform="translate(534.000000, 457.000000)">
                    <g id="ICON" transform="translate(152.000000, 56.000000)">
                        <circle id="Oval" fill="#F0F3FF" cx="54" cy="54" r="54"></circle>
                        <g id="p-heart" transform="translate(37.000000, 35.000000)" stroke="#2F5BEA" stroke-linecap="square" stroke-width="2">
                            <path d="M19.40625,38 L3.375,38 C1.51115625,38 0,36.4532273 0,34.5454545 L0,3.45454545 C0,1.54677273 1.51115625,0 3.375,0 L23.625,0 C25.4888438,0 27,1.54677273 27,3.45454545 L27,18.1363636" id="Path"></path>
                            <path d="M0,6.5 L27,6.5" id="Path"></path>
                            <path d="M0,29.5 L15,29.5" id="Path"></path>
                            <path d="M33.8018417,24.2623171 C31.9776244,22.3398956 28.9325398,22.6540282 27.5,24.9282082 C26.0657935,22.6514031 23.0207089,22.3416456 21.1981583,24.2623171 C19.6006139,25.9458578 19.6006139,28.6759238 21.1981583,30.3585894 L27.4991666,37 L33.8018417,30.3585894 C35.3993861,28.6750487 35.3993861,25.9458578 33.8018417,24.2623171 Z" id="Path"></path>
                        </g>
                    </g>
                </g>
            </g>
        </g>
    </g>
</svg>